<svg xmlns="http://www.w3.org/2000/svg" width="120" height="120"><path d="M60 0C26.869 0 0 26.869 0 60s26.869 60 60 60 60-26.869 60-60S93.131 0 60 0zm0 1c32.595 0 59 26.405 59 59s-26.405 59.031-59 59.031S1 92.595 1 60 27.405 1 60 1zM37.812 29.406c-.5 0-.78.282-.78.782s.28.812.78.812.813-.313.813-.813c0-.5-.413-.78-.813-.78zm3.22 0c-.5 0-.813.282-.813.782s.312.812.812.812.782-.313.782-.813c0-.5-.282-.78-.782-.78zm3.28 0c-.5 0-.906.282-.906.782s.407.812.907.812a.81.81 0 0 0 .812-.813c0-.5-.413-.78-.813-.78zm-9.78 3.188a.81.81 0 0 0-.813.812c0 .5.412.782.812.782.5 0 .782-.382.782-.782s-.282-.812-.782-.812zm3.28 0c-.5 0-.78.312-.78.812s.28.782.78.782.813-.382.813-.782-.413-.812-.813-.812zm3.22 0c-.5 0-.813.312-.813.812s.312.782.812.782.782-.382.782-.782-.282-.812-.782-.812zm3.28 0c-.5 0-.906.312-.906.812s.407.782.907.782c.4 0 .812-.382.812-.782s-.413-.812-.813-.812zm3.22 0c-.5 0-.813.312-.813.812s.412.782.812.782c.4 0 .782-.382.782-.782 0-.5-.382-.812-.782-.812zm3.187 0a.81.81 0 0 0-.813.812c0 .4.313.782.813.782.5 0 .812-.382.812-.782a.81.81 0 0 0-.812-.812zm3.312 0a.81.81 0 0 0-.812.812c0 .4.412.782.812.782.4 0 .782-.382.782-.782-.1-.4-.382-.812-.782-.812zm3.188 0a.81.81 0 0 0-.813.812c0 .4.413.782.813.782.4 0 .812-.382.812-.782s-.412-.812-.812-.812zm22.593 0c-.5 0-.78.412-.78.812 0 .4.38.782.78.782s.813-.382.813-.782-.412-.812-.813-.812zm9.72 0a.81.81 0 0 0-.813.812c0 .4.312.782.812.782s.781-.282.781-.782-.38-.812-.78-.812zm-55 3.218c-.4 0-.813.382-.813.782s.412.812.812.812c.5 0 .782-.412.782-.812.1-.4-.282-.782-.782-.782zm3.28 0c-.5 0-.78.382-.78.782s.28.812.78.812a.81.81 0 0 0 .813-.812c0-.4-.413-.782-.813-.782zm3.22 0c-.5 0-.813.382-.813.782s.312.812.812.812.782-.412.782-.812c0-.4-.282-.782-.782-.782zm3.28 0c-.5 0-.906.382-.906.782s.407.812.907.812c.4 0 .812-.412.812-.812 0-.4-.413-.782-.813-.782zm3.22 0c-.5 0-.813.382-.813.782s.412.812.812.812c.4 0 .782-.412.782-.812 0-.4-.382-.782-.782-.782zm3.187 0c-.5 0-.813.382-.813.782 0 .5.313.812.813.812a.81.81 0 0 0 .812-.812c0-.4-.312-.782-.812-.782zm3.312 0c-.5 0-.812.382-.812.782 0 .5.412.812.812.812.4 0 .782-.412.782-.812-.1-.4-.382-.782-.782-.782zm3.188 0c-.5 0-.813.382-.813.782 0 .5.413.812.813.812.4 0 .812-.412.812-.812 0-.4-.412-.782-.812-.782zm3.187 0c-.5 0-.781.382-.781.782 0 .5.381.812.781.812s.813-.412.813-.812c0-.4-.313-.782-.813-.782zm3.219 0c-.5 0-.813.382-.813.782 0 .5.313.812.813.812.5 0 .781-.412.781-.812 0-.4-.281-.782-.781-.782zm9.688 0c-.5 0-.782.382-.782.782 0 .5.281.812.781.812a.81.81 0 0 0 .813-.812c0-.4-.313-.782-.813-.782zm3.312 0c-.5 0-.813.382-.813.782 0 .5.413.812.813.812.4 0 .781-.412.781-.812 0-.4-.381-.782-.781-.782zm3.188 0c-.5 0-.782.382-.782.782 0 .5.381.812.781.812s.813-.412.813-.812c0-.4-.412-.782-.813-.782zm3.218 0c-.4 0-.812.382-.812.782 0 .5.412.812.812.812.5 0 .781-.412.781-.812.1-.4-.28-.782-.78-.782zm3.281 0c-.5 0-.78.382-.78.782s.38.812.78.812.813-.412.813-.812c0-.4-.412-.782-.813-.782zM37.813 39c-.5 0-.78.413-.78.813 0 .5.28.78.78.78s.813-.28.813-.78c0-.4-.413-.813-.813-.813zm3.22 0a.81.81 0 0 0-.813.813c0 .5.312.78.812.78s.782-.28.782-.78c0-.4-.282-.813-.782-.813zm3.28 0c-.5 0-.906.413-.906.813 0 .5.407.78.907.78.4 0 .812-.28.812-.78 0-.4-.413-.813-.813-.813zm3.22 0a.81.81 0 0 0-.813.813c0 .5.412.78.812.78.4 0 .782-.38.782-.78S47.93 39 47.53 39zm3.187 0a.81.81 0 0 0-.813.813c0 .5.313.78.813.78.5 0 .812-.28.812-.78A.81.81 0 0 0 50.72 39zm3.312 0a.81.81 0 0 0-.812.813c0 .5.412.78.812.78.4 0 .782-.28.782-.78-.1-.4-.382-.813-.782-.813zm3.188 0a.81.81 0 0 0-.813.813c0 .5.413.78.813.78.4 0 .812-.28.812-.78 0-.4-.412-.813-.812-.813zm3.187 0c-.5 0-.781.413-.781.813 0 .5.381.78.781.78s.813-.28.813-.78a.81.81 0 0 0-.813-.813zm3.219 0a.81.81 0 0 0-.813.813c0 .5.313.78.813.78.5 0 .781-.28.781-.78 0-.4-.281-.813-.781-.813zm3.281 0c-.5 0-.781.413-.781.813 0 .5.281.78.781.78.4 0 .813-.28.813-.78 0-.4-.413-.813-.813-.813zm3.219 0c-.4 0-.813.413-.813.813 0 .5.413.78.813.78.5 0 .781-.28.781-.78 0-.4-.281-.813-.781-.813zm3.188 0c-.5 0-.782.413-.782.813 0 .5.281.78.781.78s.813-.28.813-.78a.81.81 0 0 0-.813-.813zm3.312 0a.81.81 0 0 0-.813.813c0 .5.413.78.813.78.4 0 .781-.28.781-.78 0-.4-.381-.813-.781-.813zm3.188 0c-.5 0-.782.413-.782.813 0 .5.381.78.781.78s.813-.28.813-.78c0-.4-.412-.813-.813-.813zm3.218 0c-.4 0-.812.413-.812.813 0 .5.412.78.812.78.5 0 .781-.28.781-.78.1-.4-.28-.813-.78-.813zm3.281 0c-.5 0-.78.413-.78.813 0 .5.38.78.78.78s.813-.28.813-.78c0-.4-.412-.813-.813-.813zm-48.5 3.313c-.5 0-.78.38-.78.78 0 .5.28.813.78.813s.813-.312.813-.812c0-.4-.413-.782-.813-.782zm3.22 0c-.5 0-.813.38-.813.78 0 .5.312.813.812.813s.782-.312.782-.812c0-.4-.282-.782-.782-.782zm3.28 0c-.5 0-.906.38-.906.78 0 .5.407.813.907.813a.81.81 0 0 0 .812-.812c0-.4-.413-.782-.813-.782zm3.22 0c-.5 0-.813.38-.813.78 0 .5.412.813.812.813.4 0 .782-.312.782-.812s-.382-.782-.782-.782zm3.187 0c-.5 0-.813.28-.813.78s.313.813.813.813c.5 0 .812-.312.812-.812 0-.4-.312-.782-.812-.782zm3.312 0c-.5 0-.812.28-.812.78s.412.813.812.813c.4 0 .782-.312.782-.812-.1-.4-.382-.782-.782-.782zm3.188 0c-.5 0-.813.28-.813.78s.413.813.813.813a.81.81 0 0 0 .812-.812c0-.4-.412-.782-.812-.782zm3.187 0c-.5 0-.781.28-.781.78s.381.813.781.813a.81.81 0 0 0 .813-.812c0-.4-.313-.782-.813-.782zm3.219 0c-.5 0-.813.28-.813.78s.313.813.813.813c.5 0 .781-.312.781-.812 0-.4-.281-.782-.781-.782zm3.281 0c-.5 0-.781.28-.781.78s.281.813.781.813a.81.81 0 0 0 .813-.812c0-.4-.413-.782-.813-.782zm3.219 0c-.4 0-.813.28-.813.78s.413.813.813.813c.5 0 .781-.312.781-.812 0-.4-.281-.782-.781-.782zm3.188 0c-.5 0-.782.28-.782.78s.281.813.781.813.813-.312.813-.812c0-.4-.313-.782-.813-.782zm3.312 0c-.5 0-.813.28-.813.78s.413.813.813.813c.4 0 .781-.312.781-.812 0-.4-.381-.782-.781-.782zm3.188 0c-.5 0-.782.28-.782.78s.381.813.781.813a.81.81 0 0 0 .813-.812c0-.4-.412-.782-.813-.782zm3.218 0c-.4 0-.812.28-.812.78s.412.813.812.813c.5 0 .781-.312.781-.812.1-.4-.28-.782-.78-.782zM37.812 45.5c-.5 0-.78.313-.78.813 0 .5.28.78.78.78s.813-.38.813-.78a.81.81 0 0 0-.813-.813zm3.22 0c-.5 0-.813.313-.813.813 0 .5.312.78.812.78s.782-.38.782-.78c0-.5-.282-.813-.782-.813zm3.28 0c-.5 0-.906.313-.906.813 0 .5.407.78.907.78.4 0 .812-.38.812-.78a.81.81 0 0 0-.813-.813zm3.22 0c-.5 0-.813.313-.813.813 0 .5.412.78.812.78.4 0 .782-.28.782-.78s-.382-.813-.782-.813zm3.187 0c-.5 0-.813.313-.813.813 0 .5.313.78.813.78.5 0 .812-.38.812-.78 0-.5-.312-.813-.812-.813zm3.312 0c-.5 0-.812.313-.812.813 0 .5.412.78.812.78.4 0 .782-.38.782-.78-.1-.5-.382-.813-.782-.813zm3.188 0c-.5 0-.813.313-.813.813 0 .5.413.78.813.78.4 0 .812-.38.812-.78a.81.81 0 0 0-.812-.813zm3.187 0c-.5 0-.781.313-.781.813 0 .5.381.78.781.78s.813-.38.813-.78c0-.5-.313-.813-.813-.813zm3.219 0c-.5 0-.813.313-.813.813 0 .5.313.78.813.78.5 0 .781-.38.781-.78 0-.5-.281-.813-.781-.813zm3.281 0c-.5 0-.781.313-.781.813 0 .5.281.78.781.78.4 0 .813-.38.813-.78a.81.81 0 0 0-.813-.813zm3.219 0a.81.81 0 0 0-.813.813c0 .5.413.78.813.78.5 0 .781-.38.781-.78 0-.5-.281-.813-.781-.813zm3.188 0c-.5 0-.782.313-.782.813 0 .5.281.78.781.78s.813-.38.813-.78c0-.5-.313-.813-.813-.813zm3.312 0c-.5 0-.813.313-.813.813 0 .5.413.78.813.78.4 0 .781-.38.781-.78 0-.5-.381-.813-.781-.813zm3.188 0c-.5 0-.782.313-.782.813 0 .5.381.78.781.78s.813-.38.813-.78a.81.81 0 0 0-.813-.813zm3.218 0a.81.81 0 0 0-.812.813c0 .5.412.78.812.78.5 0 .781-.38.781-.78.1-.5-.28-.813-.78-.813zm-45.219 3.188c-.5 0-.78.412-.78.812 0 .5.28.813.78.813a.81.81 0 0 0 .813-.813c0-.4-.413-.813-.813-.813zm3.22 0a.81.81 0 0 0-.813.812c0 .5.312.813.812.813s.782-.413.782-.813c0-.4-.282-.813-.782-.813zm3.28 0c-.5 0-.906.412-.906.812 0 .5.407.813.907.813.4 0 .812-.413.812-.813 0-.4-.413-.813-.813-.813zm3.22 0a.81.81 0 0 0-.813.812c0 .4.412.813.812.813.4 0 .782-.413.782-.813 0-.4-.382-.813-.782-.813zm3.187 0a.81.81 0 0 0-.813.812c0 .5.313.813.813.813a.81.81 0 0 0 .812-.813.81.81 0 0 0-.812-.813zm3.312 0a.81.81 0 0 0-.812.812c0 .5.412.813.812.813.4 0 .782-.413.782-.813-.1-.4-.382-.813-.782-.813zm3.188 0a.81.81 0 0 0-.813.812c0 .5.413.813.813.813.4 0 .812-.413.812-.813 0-.4-.412-.813-.812-.813zm3.187 0c-.5 0-.781.412-.781.812 0 .5.381.813.781.813s.813-.413.813-.813a.81.81 0 0 0-.813-.813zm3.219 0a.81.81 0 0 0-.813.812c0 .5.313.813.813.813.5 0 .781-.313.781-.813 0-.4-.281-.813-.781-.813zm3.281 0c-.5 0-.781.412-.781.812 0 .5.281.813.781.813.4 0 .813-.413.813-.813 0-.4-.413-.813-.813-.813zm3.219 0c-.4 0-.813.412-.813.812 0 .5.413.813.813.813.5 0 .781-.413.781-.813 0-.4-.281-.813-.781-.813zm3.188 0c-.5 0-.782.412-.782.812 0 .5.281.813.781.813a.81.81 0 0 0 .813-.813.81.81 0 0 0-.813-.813zm3.312 0a.81.81 0 0 0-.813.812c0 .5.413.813.813.813.4 0 .781-.313.781-.813 0-.4-.381-.813-.781-.813zm3.188 0c-.5 0-.782.412-.782.812 0 .5.381.813.781.813s.813-.413.813-.813c0-.4-.412-.813-.813-.813zm3.218 0c-.4 0-.812.412-.812.812 0 .5.412.813.812.813.5 0 .781-.413.781-.813.1-.4-.28-.813-.78-.813zm-35.5 3.218c-.5 0-.812.382-.812.782 0 .5.412.812.812.812.4 0 .782-.413.782-.813 0-.4-.382-.78-.782-.78zM37.813 52c-.5 0-.782.313-.782.813 0 .5.282.78.782.78s.812-.38.812-.78-.413-.813-.813-.813zm3.218 0c-.5 0-.812.313-.812.813 0 .5.312.78.812.78s.782-.38.782-.78S41.53 52 41.03 52zm3.282 0c-.5 0-.907.313-.907.813 0 .5.407.78.907.78.4 0 .812-.38.812-.78S44.712 52 44.312 52zm6.406 0a.81.81 0 0 0-.813.813c0 .4.313.78.813.78.5 0 .812-.28.812-.78S51.22 52 50.72 52zm3.312 0a.81.81 0 0 0-.812.813c0 .4.412.78.812.78.4 0 .782-.28.782-.78S54.43 52 54.03 52zm3.188 0a.81.81 0 0 0-.813.813c0 .4.413.78.813.78.4 0 .812-.28.812-.78A.81.81 0 0 0 57.22 52zm3.187 0c-.5 0-.781.413-.781.813 0 .4.381.78.781.78s.813-.28.813-.78-.313-.813-.813-.813zm3.219 0a.81.81 0 0 0-.813.813c0 .4.313.78.813.78.5 0 .781-.28.781-.78S64.125 52 63.625 52zm3.281 0c-.5 0-.781.413-.781.813 0 .4.281.78.781.78.4 0 .813-.28.813-.78a.81.81 0 0 0-.813-.813zm3.219 0c-.4 0-.813.413-.813.813 0 .4.413.78.813.78.5 0 .781-.28.781-.78S70.625 52 70.125 52zm3.188 0c-.5 0-.782.413-.782.813 0 .4.281.78.781.78s.813-.28.813-.78-.313-.813-.813-.813zm3.312 0a.81.81 0 0 0-.813.813c0 .4.413.78.813.78.4 0 .781-.28.781-.78S77.025 52 76.625 52zm3.188 0c-.5 0-.782.413-.782.813 0 .4.381.78.781.78s.813-.28.813-.78a.81.81 0 0 0-.813-.813zm3.218 0c-.4 0-.812.413-.812.813 0 .4.412.78.812.78.5 0 .781-.28.781-.78s-.28-.813-.78-.813zm-45.219 3.188c-.5 0-.78.312-.78.812s.28.813.78.813a.81.81 0 0 0 .813-.813c0-.4-.413-.813-.813-.813zm3.22 0c-.5 0-.813.312-.813.812s.312.813.812.813.782-.413.782-.813c0-.4-.282-.813-.782-.813zm3.28 0c-.5 0-.906.312-.906.812s.407.813.907.813c.4 0 .812-.413.812-.813 0-.4-.413-.813-.813-.813zm3.22 0c-.5 0-.813.312-.813.812s.412.813.812.813c.4 0 .782-.413.782-.813 0-.4-.382-.813-.782-.813zm3.187 0a.81.81 0 0 0-.813.812c0 .4.313.813.813.813.5 0 .812-.313.812-.813 0-.5-.312-.813-.812-.813zm3.312 0a.81.81 0 0 0-.812.812c0 .4.412.813.812.813.4 0 .782-.313.782-.813 0-.5-.382-.813-.782-.813zm3.188 0a.81.81 0 0 0-.813.812c0 .4.413.813.813.813A.81.81 0 0 0 58.03 56a.81.81 0 0 0-.812-.813zm3.187 0c-.5 0-.781.412-.781.812 0 .4.381.813.781.813A.81.81 0 0 0 61.22 56c0-.5-.313-.813-.813-.813zm3.219 0a.81.81 0 0 0-.813.812c0 .4.313.813.813.813.5 0 .781-.313.781-.813 0-.5-.281-.813-.781-.813zm3.281 0c-.5 0-.781.412-.781.812 0 .4.281.813.781.813A.81.81 0 0 0 67.72 56a.81.81 0 0 0-.813-.813zm3.219 0c-.4 0-.813.412-.813.812 0 .4.413.813.813.813.5 0 .781-.313.781-.813 0-.5-.281-.813-.781-.813zm3.188 0c-.5 0-.782.412-.782.812 0 .4.281.813.781.813s.813-.313.813-.813c0-.5-.313-.813-.813-.813zm3.312 0a.81.81 0 0 0-.813.812c0 .4.413.813.813.813.4 0 .781-.313.781-.813 0-.5-.381-.813-.781-.813zm3.188 0c-.5 0-.782.412-.782.812 0 .4.381.813.781.813a.81.81 0 0 0 .813-.813.81.81 0 0 0-.813-.813zm3.218 0c-.4 0-.812.412-.812.812 0 .4.412.813.812.813.5 0 .781-.313.781-.813 0-.5-.28-.813-.78-.813zm-51.719 3.218c-.5 0-.78.382-.78.782s.38.812.78.812.813-.413.813-.813c0-.4-.313-.78-.813-.78zm3.22 0c-.4 0-.813.382-.813.782s.412.812.812.812c.5 0 .782-.413.782-.813.1-.4-.282-.78-.782-.78zm3.28 0c-.5 0-.78.382-.78.782s.28.812.78.812a.81.81 0 0 0 .813-.813c0-.4-.413-.78-.813-.78zm3.22 0c-.5 0-.813.382-.813.782s.312.812.812.812.782-.413.782-.813c0-.4-.282-.78-.782-.78zm3.28 0c-.5 0-.906.382-.906.782s.407.812.907.812c.4 0 .812-.413.812-.813 0-.4-.413-.78-.813-.78zm3.22 0c-.5 0-.813.382-.813.782s.412.812.812.812c.4 0 .782-.313.782-.813 0-.5-.382-.78-.782-.78zm3.187 0c-.5 0-.813.382-.813.782s.313.812.813.812a.81.81 0 0 0 .812-.813c0-.4-.312-.78-.812-.78zm3.312 0c-.5 0-.812.382-.812.782s.412.812.812.812c.4 0 .782-.413.782-.813-.1-.4-.382-.78-.782-.78zm3.188 0c-.5 0-.813.382-.813.782s.413.812.813.812c.4 0 .812-.413.812-.813 0-.4-.412-.78-.812-.78zm3.187 0c-.5 0-.781.382-.781.782s.381.812.781.812.813-.413.813-.813c0-.4-.313-.78-.813-.78zm3.219 0c-.5 0-.813.382-.813.782s.313.812.813.812c.5 0 .781-.413.781-.813 0-.4-.281-.78-.781-.78zm3.281 0c-.5 0-.781.382-.781.782s.281.812.781.812c.4 0 .813-.413.813-.813 0-.4-.413-.78-.813-.78zm3.219 0c-.4 0-.813.382-.813.782s.413.812.813.812c.5 0 .781-.413.781-.813 0-.4-.281-.78-.781-.78zm3.188 0c-.5 0-.782.382-.782.782s.281.812.781.812a.81.81 0 0 0 .813-.813c0-.4-.313-.78-.813-.78zm3.312 0c-.5 0-.813.382-.813.782s.413.812.813.812c.4 0 .781-.413.781-.813 0-.4-.381-.78-.781-.78zm3.188 0c-.5 0-.782.382-.782.782s.381.812.781.812.813-.413.813-.813c0-.4-.412-.78-.813-.78zm3.218 0c-.4 0-.812.382-.812.782s.412.812.812.812c.5 0 .781-.413.781-.813.1-.4-.28-.78-.78-.78zm-35.5 3.188a.81.81 0 0 0-.812.812c0 .5.412.782.812.782.4 0 .782-.382.782-.782s-.382-.812-.782-.812zm-16.218.093c-.5 0-.782.413-.782.813 0 .5.382.813.782.813s.812-.413.812-.813c0-.5-.313-.813-.813-.813zm3.218 0c-.4 0-.812.413-.812.813 0 .5.412.813.812.813.5 0 .782-.413.782-.813.1-.5-.282-.813-.782-.813zm3.282 0c-.5 0-.782.413-.782.813 0 .5.282.813.782.813a.81.81 0 0 0 .812-.813.81.81 0 0 0-.813-.813zm3.218 0a.81.81 0 0 0-.812.813c0 .5.312.813.812.813s.782-.413.782-.813c0-.5-.282-.813-.782-.813zm3.282 0c-.5 0-.907.413-.907.813 0 .5.407.813.907.813.4 0 .812-.413.812-.813a.81.81 0 0 0-.813-.813zm6.406 0a.81.81 0 0 0-.813.813c0 .5.313.813.813.813a.81.81 0 0 0 .812-.813c0-.5-.312-.813-.812-.813zm3.312 0a.81.81 0 0 0-.812.813c0 .5.412.813.812.813.4 0 .782-.413.782-.813-.1-.5-.382-.813-.782-.813zm3.188 0a.81.81 0 0 0-.813.813c0 .5.413.813.813.813.4 0 .812-.413.812-.813a.81.81 0 0 0-.812-.813zm3.187 0c-.5 0-.781.413-.781.813 0 .5.381.813.781.813s.813-.413.813-.813c0-.5-.313-.813-.813-.813zm3.219 0a.81.81 0 0 0-.813.813c0 .5.313.813.813.813.5 0 .781-.413.781-.813 0-.5-.281-.813-.781-.813zm3.281 0c-.5 0-.781.413-.781.813 0 .5.281.813.781.813.4 0 .813-.413.813-.813a.81.81 0 0 0-.813-.813zm3.219 0c-.4 0-.813.413-.813.813 0 .5.413.813.813.813.5 0 .781-.413.781-.813 0-.5-.281-.813-.781-.813zm3.188 0c-.5 0-.782.413-.782.813 0 .5.281.813.781.813a.81.81 0 0 0 .813-.813c0-.5-.313-.813-.813-.813zm3.312 0a.81.81 0 0 0-.813.813c0 .5.413.813.813.813.4 0 .781-.413.781-.813 0-.5-.381-.813-.781-.813zm3.188 0c-.5 0-.782.413-.782.813 0 .5.381.813.781.813s.813-.413.813-.813a.81.81 0 0 0-.813-.813zm3.218 0c-.4 0-.812.413-.812.813 0 .5.412.813.812.813.5 0 .781-.413.781-.813.1-.5-.28-.813-.78-.813zm-51.719 3.22c-.5 0-.78.28-.78.78s.38.813.78.813a.81.81 0 0 0 .813-.813c0-.5-.313-.78-.813-.78zm3.22 0c-.4 0-.813.28-.813.78s.412.813.812.813c.5 0 .782-.313.782-.813 0-.5-.282-.78-.782-.78zm3.28 0c-.5 0-.78.28-.78.78s.28.813.78.813.813-.313.813-.813c0-.5-.413-.78-.813-.78zm3.22 0c-.5 0-.813.28-.813.78s.312.813.812.813.782-.313.782-.813c0-.5-.282-.78-.782-.78zm3.28 0c-.5 0-.906.28-.906.78s.407.813.907.813a.81.81 0 0 0 .812-.813c0-.5-.413-.78-.813-.78zm3.22 0c-.5 0-.813.28-.813.78s.412.813.812.813c.4 0 .782-.313.782-.813 0-.5-.382-.78-.782-.78zm3.187 0c-.5 0-.813.28-.813.78s.313.813.813.813c.5 0 .812-.313.812-.813 0-.5-.312-.78-.812-.78zm3.312 0c-.5 0-.812.28-.812.78s.412.813.812.813c.4 0 .782-.313.782-.813 0-.5-.382-.78-.782-.78zm3.188 0c-.5 0-.813.28-.813.78s.413.813.813.813a.81.81 0 0 0 .812-.813c0-.5-.412-.78-.812-.78zm3.187 0c-.5 0-.781.28-.781.78s.381.813.781.813a.81.81 0 0 0 .813-.813c0-.5-.313-.78-.813-.78zm3.219 0c-.5 0-.813.28-.813.78s.313.813.813.813c.5 0 .781-.313.781-.813 0-.5-.281-.78-.781-.78zm3.281 0c-.5 0-.781.28-.781.78s.281.813.781.813a.81.81 0 0 0 .813-.813c0-.5-.413-.78-.813-.78zm3.219 0c-.4 0-.813.28-.813.78s.413.813.813.813c.5 0 .781-.313.781-.813 0-.5-.281-.78-.781-.78zm3.188 0c-.5 0-.782.28-.782.78s.281.813.781.813.813-.313.813-.813c0-.5-.313-.78-.813-.78zm3.312 0c-.5 0-.813.28-.813.78s.413.813.813.813c.4 0 .781-.313.781-.813 0-.5-.381-.78-.781-.78zm3.188 0c-.5 0-.782.28-.782.78s.381.813.781.813a.81.81 0 0 0 .813-.813c0-.5-.412-.78-.813-.78zm3.218 0c-.4 0-.812.28-.812.78s.412.813.812.813c.5 0 .781-.313.781-.813 0-.5-.28-.78-.78-.78zm-35.5 3.187c-.5 0-.812.312-.812.812s.412.781.812.781c.4 0 .782-.28.782-.78 0-.4-.382-.813-.782-.813zm-16.218.094c-.5 0-.782.312-.782.812 0 .4.382.813.782.813s.812-.413.812-.813c0-.5-.313-.813-.813-.813zm3.218 0a.81.81 0 0 0-.812.812c0 .4.412.813.812.813.5 0 .782-.413.782-.813.1-.5-.282-.813-.782-.813zm3.282 0c-.5 0-.782.312-.782.812 0 .4.282.813.782.813a.81.81 0 0 0 .812-.813.81.81 0 0 0-.813-.813zm3.218 0c-.5 0-.812.312-.812.812 0 .4.312.813.812.813s.782-.413.782-.813c0-.5-.282-.813-.782-.813zm3.282 0c-.5 0-.907.312-.907.812 0 .4.407.813.907.813.4 0 .812-.413.812-.813a.81.81 0 0 0-.813-.813zm6.406 0c-.5 0-.813.312-.813.812 0 .4.313.813.813.813A.81.81 0 0 0 51.53 69c0-.5-.312-.813-.812-.813zm3.312 0c-.5 0-.812.312-.812.812 0 .4.412.813.812.813.4 0 .782-.413.782-.813-.1-.5-.382-.813-.782-.813zm3.188 0c-.5 0-.813.312-.813.812 0 .4.413.813.813.813.4 0 .812-.413.812-.813a.81.81 0 0 0-.812-.813zm3.187 0c-.5 0-.781.312-.781.812 0 .4.381.813.781.813s.813-.413.813-.813c0-.5-.313-.813-.813-.813zm3.219 0c-.5 0-.813.312-.813.812 0 .4.313.813.813.813.5 0 .781-.413.781-.813 0-.5-.281-.813-.781-.813zm3.281 0c-.5 0-.781.312-.781.812 0 .4.281.813.781.813.4 0 .813-.413.813-.813a.81.81 0 0 0-.813-.813zm3.219 0a.81.81 0 0 0-.813.812c0 .4.413.813.813.813.5 0 .781-.413.781-.813 0-.5-.281-.813-.781-.813zm3.188 0c-.5 0-.782.312-.782.812 0 .4.281.813.781.813a.81.81 0 0 0 .813-.813c0-.5-.313-.813-.813-.813zm3.312 0c-.5 0-.813.312-.813.812 0 .4.413.813.813.813.4 0 .781-.413.781-.813 0-.5-.381-.813-.781-.813zm3.188 0c-.5 0-.782.312-.782.812 0 .4.381.813.781.813s.813-.413.813-.813a.81.81 0 0 0-.813-.813zm3.218 0a.81.81 0 0 0-.812.812c0 .4.412.813.812.813.5 0 .781-.413.781-.813.1-.5-.28-.813-.78-.813zm-48.5 3.124c-.4 0-.812.382-.812.782s.412.812.812.812c.5 0 .782-.412.782-.812.1-.4-.282-.781-.782-.781zm3.282 0c-.5 0-.782.382-.782.782s.282.812.782.812a.81.81 0 0 0 .812-.812c0-.4-.413-.781-.813-.781zm3.218 0c-.5 0-.812.382-.812.782s.312.812.812.812.782-.412.782-.812c0-.4-.282-.781-.782-.781zm3.282 0c-.5 0-.907.382-.907.782s.407.812.907.812c.4 0 .812-.412.812-.812 0-.4-.413-.781-.813-.781zm3.218 0c-.5 0-.812.282-.812.782 0 .4.412.812.812.812.4 0 .782-.412.782-.812 0-.4-.382-.781-.782-.781zm3.188 0c-.5 0-.813.382-.813.782s.313.812.813.812a.81.81 0 0 0 .812-.812c0-.4-.312-.781-.812-.781zm3.312 0c-.5 0-.812.382-.812.782s.412.812.812.812c.4 0 .782-.412.782-.812-.1-.4-.382-.781-.782-.781zm3.188 0c-.5 0-.813.382-.813.782s.413.812.813.812c.4 0 .812-.412.812-.812 0-.4-.412-.781-.812-.781zm3.187 0c-.5 0-.781.382-.781.782s.381.812.781.812.813-.412.813-.812c0-.4-.313-.781-.813-.781zm3.219 0c-.5 0-.813.382-.813.782s.313.812.813.812c.5 0 .781-.412.781-.812 0-.4-.281-.781-.781-.781zm3.281 0c-.5 0-.781.382-.781.782s.281.812.781.812c.4 0 .813-.412.813-.812 0-.4-.413-.781-.813-.781zm3.219 0c-.4 0-.813.382-.813.782s.413.812.813.812c.5 0 .781-.412.781-.812 0-.4-.281-.781-.781-.781zm3.188 0c-.5 0-.782.382-.782.782s.281.812.781.812a.81.81 0 0 0 .813-.812c0-.4-.313-.781-.813-.781zm3.312 0c-.5 0-.813.382-.813.782s.413.812.813.812c.4 0 .781-.412.781-.812 0-.4-.381-.781-.781-.781zm3.188 0c-.5 0-.782.382-.782.782s.381.812.781.812.813-.412.813-.812c0-.4-.412-.781-.813-.781zm3.218 0c-.4 0-.812.382-.812.782s.412.812.812.812c.5 0 .781-.412.781-.812.1-.4-.28-.781-.78-.781zm-42 3.282a.81.81 0 0 0-.812.812c0 .5.312.781.812.781s.782-.38.782-.78-.282-.813-.782-.813zm3.282 0c-.5 0-.907.412-.907.812 0 .5.407.781.907.781.4 0 .812-.38.812-.78s-.413-.813-.813-.813zm3.218 0a.81.81 0 0 0-.812.812c0 .5.412.781.812.781.4 0 .782-.38.782-.78 0-.5-.382-.813-.782-.813zm3.188 0a.81.81 0 0 0-.813.812c0 .5.313.781.813.781.5 0 .812-.38.812-.78a.81.81 0 0 0-.812-.813zm3.312 0a.81.81 0 0 0-.812.812c0 .5.412.781.812.781.4 0 .782-.38.782-.78-.1-.4-.382-.813-.782-.813zm3.188 0a.81.81 0 0 0-.813.812c0 .5.413.781.813.781.4 0 .812-.38.812-.78s-.412-.813-.812-.813zm3.187 0c-.5 0-.781.412-.781.812 0 .5.381.781.781.781s.813-.38.813-.78a.81.81 0 0 0-.813-.813zm3.219 0a.81.81 0 0 0-.813.812c0 .5.313.781.813.781.5 0 .781-.38.781-.78s-.281-.813-.781-.813zm3.281 0c-.5 0-.781.412-.781.812 0 .5.281.781.781.781.4 0 .813-.38.813-.78s-.413-.813-.813-.813zm3.219 0c-.4 0-.813.412-.813.812 0 .5.413.781.813.781.5 0 .781-.38.781-.78s-.281-.813-.781-.813zm3.188 0c-.5 0-.782.412-.782.812 0 .5.281.781.781.781s.813-.38.813-.78a.81.81 0 0 0-.813-.813zm3.312 0a.81.81 0 0 0-.813.812c0 .5.413.781.813.781.4 0 .781-.38.781-.78s-.381-.813-.781-.813zm3.188 0c-.5 0-.782.412-.782.812 0 .5.381.781.781.781s.813-.38.813-.78-.412-.813-.813-.813zm3.218 0c-.4 0-.812.412-.812.812 0 .5.412.781.812.781.5 0 .781-.38.781-.78.1-.4-.28-.813-.78-.813zm3.281 0c-.5 0-.78.412-.78.812 0 .5.38.781.78.781s.813-.28.813-.78c0-.4-.412-.813-.813-.813zm-38.78 3.219c-.5 0-.813.28-.813.78s.412.813.812.813c.4 0 .782-.412.782-.812 0-.4-.382-.781-.782-.781zm3.187 0c-.5 0-.813.38-.813.78 0 .5.313.813.813.813.5 0 .812-.312.812-.812 0-.4-.312-.781-.812-.781zm3.312 0c-.5 0-.812.38-.812.78 0 .5.412.813.812.813.4 0 .782-.312.782-.812-.1-.4-.382-.781-.782-.781zm3.188 0c-.5 0-.813.38-.813.78 0 .5.413.813.813.813a.81.81 0 0 0 .812-.812c0-.4-.412-.781-.812-.781zm3.187 0c-.5 0-.781.38-.781.78 0 .5.381.813.781.813a.81.81 0 0 0 .813-.812c0-.4-.313-.781-.813-.781zm3.219 0c-.5 0-.813.38-.813.78 0 .5.313.813.813.813.5 0 .781-.312.781-.812 0-.4-.281-.781-.781-.781zm3.281 0c-.5 0-.781.38-.781.78 0 .5.281.813.781.813a.81.81 0 0 0 .813-.812c0-.4-.413-.781-.813-.781zm3.219 0c-.4 0-.813.38-.813.78 0 .5.413.813.813.813.5 0 .781-.312.781-.812 0-.4-.281-.781-.781-.781zm3.188 0c-.5 0-.782.38-.782.78 0 .5.281.813.781.813s.813-.312.813-.812c0-.4-.313-.781-.813-.781zm3.312 0c-.5 0-.813.38-.813.78 0 .5.413.813.813.813.4 0 .781-.312.781-.812 0-.4-.381-.781-.781-.781zm3.188 0c-.5 0-.782.38-.782.78 0 .5.381.813.781.813a.81.81 0 0 0 .813-.812c0-.4-.412-.781-.813-.781zm3.218 0c-.4 0-.812.38-.812.78 0 .5.412.813.812.813.5 0 .781-.312.781-.812.1-.4-.28-.781-.78-.781zm-32.312 3.28a.81.81 0 0 0-.813.813c0 .4.313.781.813.781.5 0 .812-.38.812-.78a.81.81 0 0 0-.812-.813zm3.312 0a.81.81 0 0 0-.812.813c0 .4.412.781.812.781.4 0 .782-.38.782-.78-.1-.4-.382-.813-.782-.813zm3.188 0a.81.81 0 0 0-.813.813c0 .4.413.781.813.781.4 0 .812-.38.812-.78s-.412-.813-.812-.813zm3.187 0c-.5 0-.781.413-.781.813 0 .4.381.781.781.781s.813-.38.813-.78a.81.81 0 0 0-.813-.813zm3.219 0a.81.81 0 0 0-.813.813c0 .4.313.781.813.781.5 0 .781-.38.781-.78s-.281-.813-.781-.813zm3.281 0c-.5 0-.781.413-.781.813 0 .4.281.781.781.781.4 0 .813-.38.813-.78s-.413-.813-.813-.813zm3.219 0c-.4 0-.813.413-.813.813 0 .4.413.781.813.781.5 0 .781-.38.781-.78s-.281-.813-.781-.813zm3.188 0c-.5 0-.782.413-.782.813 0 .4.281.781.781.781s.813-.38.813-.78a.81.81 0 0 0-.813-.813zm3.312 0a.81.81 0 0 0-.813.813c0 .4.413.781.813.781.4 0 .781-.38.781-.78s-.381-.813-.781-.813zm-19.406 3.22c-.5 0-.813.38-.813.78s.413.813.813.813c.4 0 .812-.412.812-.812 0-.5-.412-.781-.812-.781zm3.187 0c-.5 0-.781.38-.781.78s.381.813.781.813.813-.412.813-.812c0-.5-.313-.781-.813-.781zm3.219 0c-.5 0-.813.38-.813.78s.313.813.813.813c.5 0 .781-.412.781-.812 0-.5-.281-.781-.781-.781zm3.281 0c-.5 0-.781.38-.781.78s.281.813.781.813c.4 0 .813-.412.813-.812 0-.5-.413-.781-.813-.781zm3.219 0c-.4 0-.813.38-.813.78s.413.813.813.813c.5 0 .781-.412.781-.812 0-.5-.281-.781-.781-.781zm3.188 0c-.5 0-.782.38-.782.78s.281.813.781.813a.81.81 0 0 0 .813-.812c0-.5-.313-.781-.813-.781zm3.312 0c-.5 0-.813.38-.813.78s.413.813.813.813c.4 0 .781-.412.781-.812 0-.5-.381-.781-.781-.781zM60.406 87.5c-.5 0-.781.313-.781.813 0 .5.381.78.781.78s.813-.28.813-.78-.313-.813-.813-.813zm3.219 0c-.5 0-.813.313-.813.813 0 .5.313.78.813.78.5 0 .781-.28.781-.78s-.281-.813-.781-.813zm3.281 0c-.5 0-.781.313-.781.813 0 .5.281.78.781.78.4 0 .813-.28.813-.78a.81.81 0 0 0-.813-.813zm3.219 0a.81.81 0 0 0-.813.813c0 .5.413.78.813.78.5 0 .781-.28.781-.78s-.281-.813-.781-.813zm3.188 0c-.5 0-.782.313-.782.813 0 .5.281.78.781.78s.813-.28.813-.78-.313-.813-.813-.813zm-12.907 3.188c-.5 0-.781.312-.781.812s.381.813.781.813.813-.413.813-.813a.81.81 0 0 0-.813-.813zm3.219 0c-.5 0-.813.312-.813.812s.313.813.813.813c.5 0 .781-.313.781-.813 0-.5-.281-.813-.781-.813zm3.281 0c-.5 0-.781.312-.781.812s.281.813.781.813c.4 0 .813-.413.813-.813 0-.4-.413-.813-.813-.813zm3.219 0a.81.81 0 0 0-.813.812c0 .5.413.813.813.813.5 0 .781-.413.781-.813 0-.4-.281-.813-.781-.813zm3.188 0c-.5 0-.782.312-.782.812s.281.813.781.813a.81.81 0 0 0 .813-.813.81.81 0 0 0-.813-.813zM66.906 94c-.5 0-.781.412-.781.813 0 .4.281.78.781.78.4 0 .813-.38.813-.78a.81.81 0 0 0-.813-.813zm3.219 0c-.4 0-.813.412-.813.813 0 .4.413.78.813.78.5 0 .781-.38.781-.78 0-.5-.281-.813-.781-.813z" color="#000" font-family="Sans" font-weight="400" overflow="visible" style="text-indent:0;text-align:start;line-height:normal;text-transform:none;block-progression:tb;marker:none;-inkscape-font-specification:Sans"/></svg>